<svg id="Capa_1" fill="white" enable-background="new 0 0 512 512" height="512" viewBox="0 0 512 512" width="512" xmlns="http://www.w3.org/2000/svg"><g><path d="m0 482h512v30h-512z"/><path d="m512 413.143h-34.429v-176.572h34.429v-55.641l-112.072-112.073h-163.357v-68.857h-98.857v68.857h-25.642l-112.072 112.073v55.642h34.429v176.572h-34.429v30h512zm-124.499-314.286 94.499 94.5v13.215h-116.501l-107.714-107.715zm-219.787-68.857h38.857v38.857h-38.857zm-137.714 176.571v-13.215l94.499-94.5h129.716l-107.714 107.715zm34.429 98.858h38.857v38.857h-38.857zm245.428 107.714h-107.714v-107.714h107.714zm137.714-68.857h-38.857v-38.857h38.857zm0-68.857h-68.857v98.857h68.857v38.857h-107.714v-137.714h-167.714v137.714h-107.714v-38.857h68.857v-98.857h-68.857v-38.857h94.499l97.072-97.073 97.072 97.072h94.499z"/><path d="m221.571 206.571h68.857v30h-68.857z"/></g></svg>