<svg id="Capa_1" fill="white" enable-background="new 0 0 512 512" height="512" viewBox="0 0 512 512" width="512" xmlns="http://www.w3.org/2000/svg"><g><path d="m467 106.75h-103.457l-2.366-34.453h-46.243v-13.113c0-32.496-26.438-58.934-58.934-58.934s-58.934 26.438-58.934 58.934v13.113h-46.244l-2.366 34.453h-103.456c-24.813 0-45 20.187-45 45v245c0 24.813 20.187 45 45 45h146.316v25c0 8.271-6.729 15-15 15h-40.316v30h240v-30h-40.316c-8.271 0-15-6.729-15-15v-25h146.316c24.813 0 45-20.187 45-45v-245c0-24.813-20.187-45-45-45zm-239.934-47.566c0-15.954 12.979-28.934 28.934-28.934s28.934 12.979 28.934 28.934v13.113h-57.867v-13.113zm-48.233 43.113h154.334l12.325 179.453h-178.984zm-133.833 34.453h101.396l-12.018 175h243.246l-12.02-175h101.396c8.271 0 15 6.729 15 15v200h-452v-200c0-8.271 6.729-15 15-15zm248.264 345h-74.528c1.665-4.695 2.58-9.742 2.58-15v-25h69.367v25c.001 5.258.916 10.305 2.581 15zm173.736-70h-422c-8.271 0-15-6.729-15-15v-15h452v15c0 8.271-6.729 15-15 15z"/><path d="m256 146.623c-25.034 0-45.401 20.367-45.401 45.401s20.367 45.401 45.401 45.401 45.4-20.367 45.4-45.401-20.366-45.401-45.4-45.401zm0 60.801c-8.492 0-15.401-6.909-15.401-15.401s6.909-15.401 15.401-15.401 15.4 6.909 15.4 15.401-6.908 15.401-15.4 15.401z"/></g></svg>