<?xml version="1.0" encoding="iso-8859-1"?>
<!-- Generator: Adobe Illustrator 19.0.0, SVG Export Plug-In . SVG Version: 6.00 Build 0)  -->
<svg version="1.1" fill="white" id="Capa_1" xmlns="http://www.w3.org/2000/svg" xmlns:xlink="http://www.w3.org/1999/xlink" x="0px" y="0px"
	 viewBox="0 0 512 512" style="enable-background:new 0 0 512 512;" xml:space="preserve">
<g>
	<g>
		<path d="M382,191v130h130V191H382z M482,291h-70v-70h70V291z"/>
	</g>
</g>
<g>
	<g>
		<path d="M0,191v130h130V191H0z M100,291H30v-70h70V291z"/>
	</g>
</g>
<g>
	<g>
		<path d="M437,0H75C33.645,0,0,33.645,0,75v86h130v-16c0-8.271,6.729-15,15-15h222c8.271,0,15,6.729,15,15v16h130V75
			C512,33.645,478.355,0,437,0z M482,131h-72.229c-5.899-17.98-22.843-31-42.771-31H145c-19.928,0-36.871,13.02-42.771,31H30V75
			c0-24.813,20.187-45,45-45h362c24.813,0,45,20.187,45,45V131z"/>
	</g>
</g>
<g>
	<g>
		<path d="M382,351v16c0,8.271-6.729,15-15,15H145c-8.271,0-15-6.729-15-15v-16H0v86c0,41.355,33.645,75,75,75h362
			c41.355,0,75-33.645,75-75v-86H382z M482,437c0,24.813-20.187,45-45,45H75c-24.813,0-45-20.187-45-45v-56h72.229
			c5.899,17.98,22.843,31,42.771,31h222c19.928,0,36.871-13.02,42.771-31H482V437z"/>
	</g>
</g>
<g>
</g>
<g>
</g>
<g>
</g>
<g>
</g>
<g>
</g>
<g>
</g>
<g>
</g>
<g>
</g>
<g>
</g>
<g>
</g>
<g>
</g>
<g>
</g>
<g>
</g>
<g>
</g>
<g>
</g>
</svg>
